<?xml version="1.0" encoding="utf-8"?>
<!-- Generator: Adobe Illustrator 22.0.1, SVG Export Plug-In . SVG Version: 6.00 Build 0)  -->
<svg version="1.1" xmlns="http://www.w3.org/2000/svg" xmlns:xlink="http://www.w3.org/1999/xlink" x="0px" y="0px"
	 viewBox="0 0 283.1 132.4" style="enable-background:new 0 0 283.1 132.4;" xml:space="preserve">
<style type="text/css">
	.st0{fill:#282D37;}
	.st1{fill:#0028FF;}
	.st2{fill:#FFFFFF;}
</style>
<g id="Calque_1">
</g>
<g id="UNLY_LOGO">
	<g>
		<g>
			<path class="st2" d="M173.3,105.1V0h19.8v105.1H173.3z"/>
			<circle class="st2" cx="36.6" cy="60.1" r="10.2"/>
			<path class="st2" d="M159.4,60c0-14.3-14.8-29.4-30.9-29.4c-9.8,0-16.2,2.5-22,6.7V32H86.7v73.2h19.8V61.1
				c0-4.9,7.6-11.1,15.5-11.9c8.3-0.8,17,4,17.6,10.6v45.4h19.8V60z"/>
			<polygon class="st2" points="216.9,132.4 237.9,132.4 283.1,32 262,32 244,74.8 224.5,32 202.4,32 233.5,95.9 			"/>
			<g>
				<path class="st2" d="M37.3,105.7c-19.6,0-36.9-16.1-36.9-34.5V32h18.9v39.3c0,8,8.7,15.6,17.9,15.6c8.9,0,16.6-7.3,16.6-15.6V32
					h18.9v39.3C72.8,89.9,56.5,105.7,37.3,105.7z"/>
			</g>
		</g>
		<g>
			<path class="st2" d="M3.7,13.7v8.4H0V0.5h8c4.1,0,6.9,2.8,6.9,6.6c0,3.8-2.7,6.6-6.9,6.6H3.7z M7.5,10.4c2.3,0,3.7-1.3,3.7-3.3
				c0-2.1-1.4-3.4-3.7-3.4H3.7v6.7H7.5z"/>
			<path class="st2" d="M31.2,14.7c0,4.6-3.3,7.9-7.7,7.9c-4.4,0-7.7-3.3-7.7-7.9c0-4.5,3.3-7.9,7.7-7.9C28,6.8,31.2,10.1,31.2,14.7
				z M27.6,14.7c0-3.1-2-4.7-4.1-4.7c-2.2,0-4.1,1.6-4.1,4.7s2,4.7,4.1,4.7C25.7,19.4,27.6,17.8,27.6,14.7z"/>
			<path class="st2" d="M46.3,7.3l3.5,10.3l3-10.3h3.6l-4.8,14.8h-3.5l-3.7-10.7l-3.6,10.7h-3.6L32.4,7.3h3.8l3,10.3l3.5-10.3H46.3z
				"/>
			<path class="st2" d="M71.8,17.9c-0.8,2.6-3.1,4.7-6.7,4.7c-4,0-7.6-2.9-7.6-8c0-4.7,3.5-7.8,7.2-7.8c4.6,0,7.3,3,7.3,7.7
				c0,0.6-0.1,1.1-0.1,1.1H61.1c0.1,2.3,1.9,3.9,4.1,3.9c2.1,0,3.2-1.1,3.7-2.6L71.8,17.9z M68.5,13.1c-0.1-1.7-1.2-3.3-3.7-3.3
				c-2.2,0-3.5,1.7-3.6,3.3H68.5z"/>
			<path class="st2" d="M84.1,10.8c-0.4-0.1-0.8-0.1-1.2-0.1c-2.7,0-4,1.6-4,4.4v7.1h-3.5V7.3h3.4v2.4c0.7-1.6,2.3-2.6,4.3-2.6
				c0.4,0,0.8,0.1,0.9,0.1V10.8z"/>
			<path class="st2" d="M100,17.9c-0.8,2.6-3.1,4.7-6.7,4.7c-4,0-7.6-2.9-7.6-8c0-4.7,3.5-7.8,7.2-7.8c4.6,0,7.3,3,7.3,7.7
				c0,0.6-0.1,1.1-0.1,1.1H89.3c0.1,2.3,1.9,3.9,4.1,3.9c2.1,0,3.2-1.1,3.7-2.6L100,17.9z M96.7,13.1c-0.1-1.7-1.2-3.3-3.7-3.3
				c-2.2,0-3.5,1.7-3.6,3.3H96.7z"/>
			<path class="st2" d="M117.3,19.4c0,1.3,0.1,2.5,0.2,2.7h-3.4c-0.1-0.3-0.2-1.3-0.2-1.9c-0.7,1.2-2.3,2.3-4.4,2.3
				c-4.3,0-7.1-3.4-7.1-7.8c0-4.3,2.9-7.8,7.1-7.8c2.6,0,3.9,1.2,4.4,2.1v-9h3.4V19.4z M110,19.4c2.3,0,3.9-1.9,3.9-4.8
				c0-2.8-1.6-4.6-3.9-4.6c-2.3,0-4,1.8-4,4.6C106,17.5,107.6,19.4,110,19.4z"/>
			<path class="st2" d="M129.5,22.1V0.1h3.5v9.1c0.7-1.2,2.4-2.2,4.7-2.2c4.5,0,6.9,3.4,6.9,7.7c0,4.5-2.7,7.9-7,7.9
				c-2.1,0-3.7-0.9-4.6-2.3v2H129.5z M136.9,10c-2.3,0-4,1.7-4,4.6c0,2.9,1.7,4.7,4,4.7c2.3,0,4-1.8,4-4.7
				C140.9,11.7,139.3,10,136.9,10z"/>
			<path class="st2" d="M148,28.1l3.6-7.8l-6.3-13.1h4l4.3,9.4l4-9.4h3.8l-9.5,20.9H148z"/>
		</g>
	</g>
</g>
<g id="TEXTE">
</g>
<g id="_x3C_Calque_x3E_">
</g>
</svg>
