<svg id="Calque_1" data-name="Calque 1" xmlns="http://www.w3.org/2000/svg" viewBox="0 0 283.1 132.4"><defs><style>.cls-1{fill:#262626;}.cls-2{fill:#0028ff;}</style></defs><path class="cls-1" d="M173.3,105.1V0h19.8V105.1Z"/><circle class="cls-2" cx="36.6" cy="60.1" r="10.2"/><path class="cls-1" d="M159.4,60c0-14.3-14.8-29.4-30.9-29.4-9.8,0-16.2,2.5-22,6.7V32H86.7v73.2h19.8V61.1c0-4.9,7.6-11.1,15.5-11.9,8.3-.8,17,4,17.6,10.6v45.4h19.8V60Z"/><polygon class="cls-1" points="216.9 132.4 237.9 132.4 283.1 32 262 32 244 74.8 224.5 32 202.4 32 233.5 95.9 216.9 132.4"/><path class="cls-1" d="M37.3,105.7C17.7,105.7.4,89.6.4,71.2V32H19.3V71.3c0,8,8.7,15.6,17.9,15.6,8.9,0,16.6-7.3,16.6-15.6V32H72.7V71.3C72.8,89.9,56.5,105.7,37.3,105.7Z"/><path class="cls-1" d="M3.7,13.7v8.4H0V.5H8c4.1,0,6.9,2.8,6.9,6.6S12.2,13.7,8,13.7Zm3.8-3.3c2.3,0,3.7-1.3,3.7-3.3S9.8,3.7,7.5,3.7H3.7v6.7Z"/><path class="cls-1" d="M31.2,14.7a7.57,7.57,0,0,1-7.7,7.9,7.57,7.57,0,0,1-7.7-7.9,7.63,7.63,0,0,1,7.7-7.9A7.51,7.51,0,0,1,31.2,14.7Zm-3.6,0c0-3.1-2-4.7-4.1-4.7s-4.1,1.6-4.1,4.7,2,4.7,4.1,4.7S27.6,17.8,27.6,14.7Z"/><path class="cls-1" d="M46.3,7.3l3.5,10.3,3-10.3h3.6L51.6,22.1H48.1L44.4,11.4,40.8,22.1H37.2L32.4,7.3h3.8l3,10.3L42.7,7.3Z"/><path class="cls-1" d="M71.8,17.9a6.65,6.65,0,0,1-6.7,4.7c-4,0-7.6-2.9-7.6-8a7.45,7.45,0,0,1,7.2-7.8c4.6,0,7.3,3,7.3,7.7a6.27,6.27,0,0,1-.1,1.1H61.1a4,4,0,0,0,4.1,3.9,3.56,3.56,0,0,0,3.7-2.6Zm-3.3-4.8a3.38,3.38,0,0,0-3.7-3.3,3.54,3.54,0,0,0-3.6,3.3Z"/><path class="cls-1" d="M84.1,10.8a4.87,4.87,0,0,0-1.2-.1c-2.7,0-4,1.6-4,4.4v7.1H75.4V7.3h3.4V9.7a4.5,4.5,0,0,1,4.3-2.6,7.75,7.75,0,0,1,.9.1v3.6Z"/><path class="cls-1" d="M100,17.9a6.65,6.65,0,0,1-6.7,4.7c-4,0-7.6-2.9-7.6-8a7.45,7.45,0,0,1,7.2-7.8c4.6,0,7.3,3,7.3,7.7a6.27,6.27,0,0,1-.1,1.1H89.3a4,4,0,0,0,4.1,3.9,3.56,3.56,0,0,0,3.7-2.6Zm-3.3-4.8A3.38,3.38,0,0,0,93,9.8a3.54,3.54,0,0,0-3.6,3.3Z"/><path class="cls-1" d="M117.3,19.4a12.31,12.31,0,0,0,.2,2.7h-3.4a9.2,9.2,0,0,1-.2-1.9,5.08,5.08,0,0,1-4.4,2.3c-4.3,0-7.1-3.4-7.1-7.8s2.9-7.8,7.1-7.8c2.6,0,3.9,1.2,4.4,2.1V0h3.4Zm-7.3,0c2.3,0,3.9-1.9,3.9-4.8S112.3,10,110,10s-4,1.8-4,4.6S107.6,19.4,110,19.4Z"/><path class="cls-1" d="M129.5,22.1V.1H133V9.2A5.33,5.33,0,0,1,137.7,7c4.5,0,6.9,3.4,6.9,7.7,0,4.5-2.7,7.9-7,7.9a5.25,5.25,0,0,1-4.6-2.3v2h-3.5ZM136.9,10c-2.3,0-4,1.7-4,4.6s1.7,4.7,4,4.7,4-1.8,4-4.7S139.3,10,136.9,10Z"/><path class="cls-1" d="M148,28.1l3.6-7.8L145.3,7.2h4l4.3,9.4,4-9.4h3.8l-9.5,20.9Z"/></svg>