<svg id="Calque_1" xmlns="http://www.w3.org/2000/svg" width="24.39" height="12.88" viewBox="0 0 24.39 12.88">
  <defs>
    <style>.cls-1{fill:#bf2333;}.cls-2,.cls-4{fill:#fff;}.cls-3{fill:#223164;}.cls-4{fill-rule:evenodd;}.cls-5{fill:#283575;}.cls-6{fill:#d0232e;}</style>
  </defs>
  <rect id="rect8767" class="cls-1" x="0.03" y="11.75" width="24.26" height="1.03"/>
  <rect id="rect8769" class="cls-2" x="0.03" y="10.72" width="24.26" height="1.03"/>
  <rect id="rect8771" class="cls-1" x="0.03" y="9.7" width="24.26" height="1.03"/>
  <rect id="rect8773" class="cls-2" x="0.03" y="8.68" width="24.26" height="1.03"/>
  <rect id="rect8775" class="cls-1" x="0.03" y="7.72" width="24.26" height="0.96"/>
  <rect id="rect8777" class="cls-2" x="0.03" y="6.76" width="24.26" height="0.96"/>
  <rect id="rect8779" class="cls-1" x="0.03" y="5.79" width="24.26" height="0.96"/>
  <rect id="rect8781" class="cls-2" x="0.03" y="4.83" width="24.26" height="0.96"/>
  <rect id="rect8783" class="cls-1" x="0.03" y="3.87" width="24.26" height="0.96"/>
  <rect id="rect8785" class="cls-2" x="0.03" y="2.92" width="24.26" height="0.96"/>
  <rect id="rect8787" class="cls-1" x="0.03" y="1.96" width="24.26" height="0.96"/>
  <rect id="rect8791" class="cls-2" x="0.03" y="0.99" width="24.26" height="0.96"/>
  <rect id="rect8793" class="cls-1" x="0.03" y="0.03" width="24.26" height="0.96"/>
  <rect id="rect8796" class="cls-3" x="0.03" y="0.03" width="9.73" height="6.72"/>
  <path id="path8825" class="cls-4" d="M.44,6H.72l.11-.28L.94,6h.28L1,6.14l.07.29L.83,6.28l-.24.16.06-.29Z"/>
  <path id="path8827" class="cls-4" d="M2,6h.28l.11-.28L2.54,6h.29l-.21.19.06.29-.24-.15-.23.16.06-.29Z"/>
  <path id="path8829" class="cls-4" d="M3.7,6H4l.11-.28L4.2,6h.29l-.22.19.07.29L4.1,6.28l-.25.16.06-.29Z"/>
  <path id="path8831" class="cls-4" d="M5.3,6h.28l.11-.28L5.81,6h.28l-.21.19.06.29L5.7,6.28l-.24.16.06-.29Z"/>
  <path id="path8833" class="cls-4" d="M6.9,6h.29l.1-.28L7.41,6h.28l-.21.19.07.29L7.3,6.28l-.24.16.06-.29Z"/>
  <path id="path8835" class="cls-4" d="M8.57,6h.28L9,5.68,9.08,6h.27l-.16.19v.3L9,6.29l-.24.16.06-.29Z"/>
  <path id="path8837" class="cls-4" d="M1.27,5.32h.28L1.66,5l.12.27h.28l-.21.2.06.29-.24-.15-.24.16.06-.29Z"/>
  <path id="path8839" class="cls-4" d="M.44,4.61H.72l.11-.28.11.28h.28L1,4.81l.07.29L.83,5,.59,5.1l.06-.29Z"/>
  <path id="path8841" class="cls-4" d="M1.27,4h.28l.11-.28L1.78,4h.28l-.21.2.06.29-.24-.15-.24.15.06-.29Z"/>
  <path id="path8843" class="cls-4" d="M.44,3.26H.72L.83,3l.11.26h.28L1,3.46l.07.29L.83,3.6l-.24.16.06-.29Z"/>
  <path id="path8845" class="cls-4" d="M1.27,2.63h.28l.11-.27.12.27h.28l-.21.2.06.28L1.67,3l-.24.15.06-.29Z"/>
  <path id="path8847" class="cls-4" d="M.44,1.93H.72l.11-.28.11.27h.28L1,2.11l.07.29L.83,2.25l-.24.16.06-.29Z"/>
  <path id="path8849" class="cls-4" d="M1.27,1.29h.28L1.66,1l.12.27h.28l-.21.2.06.29-.24-.15-.24.16.06-.29Z"/>
  <path id="path8851" class="cls-4" d="M.44.58H.72L.83.3.94.58h.28L1,.78l.07.29L.83.92l-.24.15L.65.78Z"/>
  <path id="path8853" class="cls-4" d="M2.87,5.32h.28L3.25,5l.12.27h.28l-.21.2.07.29-.25-.15L3,5.81l.05-.29Z"/>
  <path id="path8855" class="cls-4" d="M2,4.61h.28l.11-.28.11.28h.29l-.21.2.06.29L2.44,5,2.2,5.1l.06-.29Z"/>
  <path id="path8857" class="cls-4" d="M2.87,4h.28l.1-.28L3.37,4h.28l-.21.2.07.29-.25-.15L3,4.46l.05-.29Z"/>
  <path id="path8859" class="cls-4" d="M2,3.26h.28L2.43,3l.11.26h.29l-.21.2.06.29L2.44,3.6l-.24.16.06-.29Z"/>
  <path id="path8861" class="cls-4" d="M2.87,2.63h.28l.1-.27.12.27h.28l-.21.2.07.28L3.26,3,3,3.12l.05-.29Z"/>
  <path id="path8863" class="cls-4" d="M2,1.93h.28l.11-.28.11.27h.29l-.21.19.06.29-.24-.15-.23.2.06-.29Z"/>
  <path id="path8865" class="cls-4" d="M2.87,1.29h.28L3.25,1l.12.27h.28l-.21.2.07.29-.25-.15L3,1.78l.05-.29Z"/>
  <path id="path8867" class="cls-4" d="M2,.58h.28L2.43.3l.11.28h.29l-.21.2.06.29L2.44.92l-.24.15L2.26.78Z"/>
  <path id="path8869" class="cls-4" d="M4.47,5.32h.28L4.86,5,5,5.31h.28L5,5.51l.07.29-.25-.15-.24.16.06-.29Z"/>
  <path id="path8871" class="cls-4" d="M3.7,4.61H4l.11-.28.11.28h.29l-.22.2.07.29L4.1,5l-.25.15.06-.29Z"/>
  <path id="path8873" class="cls-4" d="M6.9,4.61h.29l.1-.28.12.28h.28l-.21.2.07.29L7.3,5l-.24.15.06-.29Z"/>
  <path id="path8875" class="cls-4" d="M5.3,4.61h.28l.11-.28.12.28h.28l-.21.2.06.29L5.7,5l-.24.15.06-.29Z"/>
  <path id="path8877" class="cls-4" d="M7.74,5.32H8L8.13,5l.11.27h.29l-.22.2.07.29-.24-.15-.25.16L8,5.52Z"/>
  <path id="path8879" class="cls-4" d="M6.13,5.32h.29L6.52,5l.12.27h.28l-.21.2.07.29-.25-.15-.24.16.06-.29Z"/>
  <path id="path8881" class="cls-4" d="M3.7.58H4L4.09.3,4.2.58h.29l-.22.2.07.29L4.1.92l-.25.15L3.91.78Z"/>
  <path id="path8883" class="cls-4" d="M4.47,1.29h.28L4.86,1,5,1.28h.28L5,1.48l.07.29-.25-.15-.24.16.06-.29Z"/>
  <path id="path8885" class="cls-4" d="M3.7,1.93H4l.11-.28.11.27h.29l-.22.19.07.29L4.1,2.25l-.25.16.06-.29Z"/>
  <path id="path8887" class="cls-4" d="M4.47,2.63h.28l.11-.27L5,2.63h.28L5,2.83l.07.28L4.86,3l-.24.15.06-.29Z"/>
  <path id="path8889" class="cls-4" d="M3.7,3.26H4L4.09,3l.11.26h.29l-.22.2.07.29L4.1,3.6l-.25.16.06-.29Z"/>
  <path id="path8891" class="cls-4" d="M4.47,4h.28l.11-.28L5,4h.28L5,4.17l.07.29-.25-.15-.24.15.06-.29Z"/>
  <path id="path8893" class="cls-4" d="M8.57,4.61h.28L9,4.33l.12.28h.27l-.2.2,0,.29L9,5l-.24.15.06-.29Z"/>
  <path id="path8895" class="cls-4" d="M5.3,3.26h.28L5.69,3l.12.26h.28l-.21.2.06.29L5.7,3.6l-.24.16.06-.29Z"/>
  <path id="path8897" class="cls-4" d="M5.3.58h.28L5.69.3l.12.28h.28l-.21.2.06.29L5.7.92l-.24.15L5.52.78Z"/>
  <path id="path8899" class="cls-4" d="M5.3,1.93h.28l.11-.28.12.27h.28l-.21.19.06.29L5.7,2.25l-.24.16.06-.29Z"/>
  <path id="path8901" class="cls-4" d="M7.74,4H8l.11-.28L8.24,4h.29l-.22.2.07.29-.24-.15-.25.15L8,4.17Z"/>
  <path id="path8903" class="cls-4" d="M6.13,4h.29l.1-.28L6.64,4h.28l-.21.2.07.29-.25-.15-.24.15.06-.29Z"/>
  <path id="path8905" class="cls-4" d="M6.13,1.29h.29L6.52,1l.12.27h.28l-.21.2.07.29-.25-.15-.24.16.06-.29Z"/>
  <path id="path8907" class="cls-4" d="M6.13,2.63h.29l.1-.27.12.27h.28l-.21.2.07.28L6.53,3l-.24.15.06-.29Z"/>
  <path id="path8909" class="cls-4" d="M8.57,3.26h.28L9,3l.12.26h.27l-.16.18.06.29L9,3.58l-.24.16.06-.29Z"/>
  <path id="path8911" class="cls-4" d="M6.9,3.26h.29L7.29,3l.12.26h.28l-.21.2.07.29L7.3,3.6l-.24.16.06-.29Z"/>
  <path id="path8913" class="cls-4" d="M6.9.58h.29L7.29.3l.12.28h.28l-.21.2.07.29L7.3.92l-.24.15L7.12.78Z"/>
  <path id="path8915" class="cls-4" d="M6.9,1.93h.29l.1-.28.12.27h.28l-.21.19.07.29L7.3,2.25l-.24.16.06-.29Z"/>
  <path id="path8917" class="cls-4" d="M8.57.58h.28L9,.3l.12.28h.27l-.2.2,0,.29L9,.92l-.24.15L8.79.78Z"/>
  <path id="path8919" class="cls-4" d="M7.74,1.29H8L8.13,1l.11.27h.29l-.22.2.07.29-.24-.15-.25.16L8,1.49Z"/>
  <path id="path8921" class="cls-4" d="M8.57,1.93h.28L9,1.65l.12.27h.27l-.2.19,0,.34L9,2.3l-.24.16.06-.29Z"/>
  <path id="path8923" class="cls-4" d="M7.74,2.63H8l.11-.27.11.27h.29l-.22.2.07.28L8.14,3l-.25.15L8,2.83Z"/>
  <path id="path3835" class="cls-2" d="M0,12.8,24.39.08V12.83Z"/>
  <path id="path3839" class="cls-5" d="M14.19,12.78V8.13h10.1v4.63Z"/>
  <path id="path3843" class="cls-5" d="M24.29.05,16,4.44h8.25Z"/>
  <path id="path3845" class="cls-5" d="M0,12.77,9.1,8.07h1.25v4.72Z"/>
  <path id="path3847" class="cls-2" d="M24.35,11.5v1.38H22.17L13.85,8.52l.09-.61,3.69.1Z"/>
  <path id="path3855" class="cls-2" d="M24.37,0,15.82,4.54l2.65.06,5.85-3.15Z"/>
  <path id="path3859" class="cls-2" d="M0,12.77,9.51,7.85h1v.93l-7.46,4Z"/>
  <path id="path4355" class="cls-6" d="M0,12.77,9.36,7.92h1v.5L2.08,12.76Z"/>
  <path id="path4357" class="cls-6" d="M15.27,8l1.84.05,7.2,3.85v.84Z"/>
  <path id="path3058" class="cls-6" d="M24.29,7.44h-14L15,5.06h9.36Z"/>
  <path id="path3060" class="cls-6" d="M13.42,12.74V5.85L11,7.08v5.69Z"/>
</svg>
