<svg id="Calque_1" data-name="Calque 1" xmlns="http://www.w3.org/2000/svg" width="36.86" height="18.43" viewBox="0 0 36.86 18.43"><defs><style>.cls-1{fill:#c82531;}.cls-2{fill:#fffefe;}.cls-3{fill:#242e64;}</style></defs><path class="cls-1" d="M43.42,23.15v3.68H26.9s0,0,0,.06v7.33H23.16V26.94c0-.11,0-.11-.1-.11H6.57V23.15H23.06c.1,0,.1,0,.1-.1V15.78h3.69V23.1s0,0,0,0H43.42Z" transform="translate(-6.57 -15.78)"/><path class="cls-2" d="M43.42,23.15H26.9s0,0,0,0V15.78h1.22a.38.38,0,0,1,0,.1V21.3a.27.27,0,0,0,0,.09l.07,0,11.09-5.54.06,0h1.37a.2.2,0,0,1-.09.05L30.8,20.72l-2.32,1.16s0,0-.05,0H31.1a.24.24,0,0,0,.12,0l12.13-6.07s0,0,.06,0,0,0,0,0v2l-.08,0-2.11,1.06-5.86,2.93a.14.14,0,0,0-.08.05h8.13Z" transform="translate(-6.57 -15.78)"/><path class="cls-2" d="M6.57,26.83H23.06c.1,0,.1,0,.1.11v7.28H21.94s0,0,0,0V29.23c0-.2,0-.39,0-.58,0,0,0,0,0,0l-.06,0q-5.53,2.77-11.08,5.54a.24.24,0,0,0-.08.06H9.34s0,0,.06,0l5.83-2.92,6.28-3.13s0,0,.07-.05H16.19a.28.28,0,0,0-.15,0l-8.3,4.15-1.09.54a.08.08,0,0,1-.08,0v-.68a.24.24,0,0,0,.09,0l3.85-1.93,4.13-2.06s0,0,.07-.05H6.64a.16.16,0,0,0-.07,0Z" transform="translate(-6.57 -15.78)"/><path class="cls-2" d="M26.85,34.22V26.89c0-.05,0-.05,0-.06H43.42v1.24a.33.33,0,0,0-.1,0h-8s0,0-.05,0l.06,0,8,4s0,0,.06,0v.69l-.08,0-3.05-1.53L34,28.1a.28.28,0,0,0-.12,0H28.43s0,0,.07,0l11.27,5.64.84.42s.06,0,.06,0H39.3a.12.12,0,0,0-.08-.06l-8.65-4.32-2.42-1.21a.15.15,0,0,0-.07,0v5.57a.11.11,0,0,1,0,0Z" transform="translate(-6.57 -15.78)"/><path class="cls-2" d="M23.16,15.78v7.27c0,.1,0,.1-.1.1H6.57V21.93h8.1s0,0,0,0l-.06,0-8-4-.07,0v-.68s.06,0,.09,0L16,21.89a.4.4,0,0,0,.15,0h5.4a.18.18,0,0,0-.08-.05L10,16.09l-.61-.31h1.37s0,0,.07,0L17.08,19l4.78,2.38a.15.15,0,0,0,.07,0,.27.27,0,0,0,0-.09c0-1.81,0-3.61,0-5.42a.33.33,0,0,1,0-.1Z" transform="translate(-6.57 -15.78)"/><path class="cls-1" d="M6.57,32.82a.08.08,0,0,0,.08,0l1.09-.54L16,28.1a.28.28,0,0,1,.15,0h5.39s0,0-.07.05l-6.28,3.13L9.4,34.17s-.06,0-.06,0H6.57Z" transform="translate(-6.57 -15.78)"/><path class="cls-1" d="M40.67,34.22s0,0-.06,0l-.84-.42L28.5,28.11s-.05,0-.07,0h5.41a.28.28,0,0,1,.12,0l6.33,3.16,3.05,1.53.08,0v1.39Z" transform="translate(-6.57 -15.78)"/><path class="cls-1" d="M9.34,15.78l.61.31,11.56,5.78a.18.18,0,0,1,.08.05h-5.4a.4.4,0,0,1-.15,0l-9.38-4.7s0,0-.09,0V15.78Z" transform="translate(-6.57 -15.78)"/><path class="cls-3" d="M10.7,34.22a.24.24,0,0,1,.08-.06q5.55-2.76,11.08-5.54l.06,0s0,0,0,0c0,.19,0,.38,0,.58v4.94s0,0,0,0Z" transform="translate(-6.57 -15.78)"/><path class="cls-3" d="M28.07,34.22a.11.11,0,0,0,0,0V28.6a.15.15,0,0,1,.07,0l2.42,1.21,8.65,4.32a.12.12,0,0,1,.08.06Z" transform="translate(-6.57 -15.78)"/><path class="cls-3" d="M21.94,15.78a.33.33,0,0,0,0,.1c0,1.81,0,3.61,0,5.42a.27.27,0,0,1,0,.09.15.15,0,0,1-.07,0L17.08,19l-6.3-3.16s0,0-.07,0Z" transform="translate(-6.57 -15.78)"/><path class="cls-3" d="M39.3,15.78l-.06,0L28.15,21.36l-.07,0a.27.27,0,0,1,0-.09V15.88a.38.38,0,0,0,0-.1Z" transform="translate(-6.57 -15.78)"/><path class="cls-1" d="M43.41,15.78s0,0-.06,0L31.22,21.89a.24.24,0,0,1-.12,0H28.43s0,0,.05,0l2.32-1.16,9.78-4.89a.2.2,0,0,0,.09-.05Z" transform="translate(-6.57 -15.78)"/><path class="cls-3" d="M6.57,17.85l.07,0,8,4,.06,0s0,0,0,0H6.57Z" transform="translate(-6.57 -15.78)"/><path class="cls-3" d="M43.42,21.93H35.29a.14.14,0,0,1,.08-.05l5.86-2.93,2.11-1.06.08,0Z" transform="translate(-6.57 -15.78)"/><path class="cls-3" d="M6.57,28.07a.16.16,0,0,1,.07,0h8.07s-.05,0-.07.05l-4.13,2.06L6.66,32.11a.24.24,0,0,1-.09,0Z" transform="translate(-6.57 -15.78)"/><path class="cls-3" d="M43.42,32.14s0,0-.06,0l-8-4-.06,0s0,0,.05,0h8a.33.33,0,0,1,.1,0Z" transform="translate(-6.57 -15.78)"/></svg>