<svg
  id="Calque_1" xmlns="http://www.w3.org/2000/svg" width="24.43" height="12.91" viewBox="0 0 24.43 12.91">
  <defs>
    <style>.cls-1{fill:#c7102e;}.cls-2{fill:#faf9fa;}.cls-3{fill:#012068;}</style>
  </defs>
  <g id="_3VsY8T">
    <path class="cls-1"
          d="M0,7.71V5.2l.42,0c3.39,0,6.79,0,10.18,0,.31,0,.38-.1.38-.41C11,3.19,11,1.59,11,0h2.45c0,1.59,0,3.19,0,4.78,0,.31.07.41.38.41,3,0,6,0,9.07,0l1.53,0V7.71l-.42,0c-3.39,0-6.79,0-10.18,0-.31,0-.38.1-.38.41,0,1.59,0,3.19,0,4.78H11c0-1.59,0-3.19,0-4.78,0-.31-.07-.41-.38-.41-3,0-6,0-9.07,0Z"/>
    <path class="cls-2"
          d="M11,0c0,1.59,0,3.19,0,4.78,0,.31-.07.41-.38.41-3.39,0-6.79,0-10.18,0L0,5.2V4.3H5.28V4.23L0,1.46V1c1.85,1,3.73,1.92,5.56,3A4.36,4.36,0,0,0,8,4.27a1,1,0,0,0-.22-.15c-1.7-.9-3.4-1.79-5.09-2.7C1.83,1,.93.54.09,0H2.86c.05.14.19.16.29.21l3.71,2,3.28,1.73V0Z"/>
    <path class="cls-2"
          d="M13.44,12.91c0-1.59,0-3.19,0-4.78,0-.31.07-.41.38-.41,3.39,0,6.79,0,10.18,0l.42,0v.9H19.15v.07l5.27,2.77v.49c-1.85-1-3.73-1.92-5.56-3a4.36,4.36,0,0,0-2.43-.34,1,1,0,0,0,.22.15c1.7.9,3.4,1.79,5.09,2.7.87.47,1.77.88,2.61,1.42H21.57c-.06-.15-.21-.17-.33-.23l-3.81-2L14.29,9v3.91Z"/>
    <path class="cls-2"
          d="M0,7.71l1.53,0c3,0,6.05,0,9.07,0,.31,0,.38.1.38.41,0,1.59,0,3.19,0,4.78h-.85V9L10,9.09,3,12.77c-.06,0-.16,0-.16.14H1.93c.06-.14.2-.16.3-.22L8.55,9.35l1.29-.69A9.51,9.51,0,0,0,8.79,8.6a2,2,0,0,0-1.2.3C6.06,9.73,4.51,10.53,3,11.35c-1,.52-1.95,1-2.89,1.56-.16-.15-.06-.35-.07-.53s0-.62,0-.93L5.3,8.68l0-.07H0Z"/>
    <path class="cls-2"
          d="M24.41,5.2l-1.53,0c-3,0-6.05,0-9.07,0-.31,0-.38-.1-.38-.41,0-1.59,0-3.19,0-4.78h.85V3.9l.18-.08L21.41.14c.06,0,.16,0,.16-.14h.93c0,.09-.08.1-.13.12l-7.49,4c-.09.06-.26,0-.28.23.31,0,.62,0,.93,0A2.32,2.32,0,0,0,16.91,4c1.52-.83,3.05-1.62,4.58-2.44,1-.51,1.92-1,2.85-1.54.16.15.06.35.07.53s0,.62,0,.93L19.13,4.23l0,.07h5.25Z"/>
    <path class="cls-3" d="M10.14,0V3.91L6.86,2.18,3.15.21c-.1,0-.24-.07-.29-.21Z"/>
    <path class="cls-3" d="M21.57,0c0,.11-.1.11-.16.14L14.47,3.82l-.18.08V0Z"/>
    <path class="cls-3" d="M2.86,12.91c0-.11.1-.11.16-.14L10,9.09,10.14,9v3.9Z"/>
    <path class="cls-3" d="M14.29,12.91V9l3.14,1.66,3.81,2c.12.06.27.08.33.23Z"/>
    <path class="cls-1"
          d="M24.34,0c-.93.57-1.9,1-2.85,1.54C20,2.36,18.43,3.15,16.91,4a2.32,2.32,0,0,1-1.38.33c-.31,0-.62,0-.93,0,0-.2.19-.17.28-.23l7.49-4c.05,0,.12,0,.13-.12Z"/>
    <path class="cls-1"
          d="M.09,12.91C1,12.33,2,11.87,3,11.35c1.53-.82,3.08-1.62,4.61-2.45a2,2,0,0,1,1.2-.3,9.51,9.51,0,0,1,1.05.06l-1.29.69L2.23,12.69c-.1.06-.24.08-.3.22Z"/>
    <path class="cls-3" d="M0,1.46,5.29,4.23V4.3H0Z"/>
    <path class="cls-3" d="M24.41,4.3H19.16l0-.07,5.28-2.77Z"/>
    <path class="cls-3" d="M0,8.61H5.27l0,.07L0,11.45Z"/>
    <path class="cls-3" d="M24.41,11.45,19.14,8.68V8.61h5.26Z"/>
    <path class="cls-1"
          d="M.09,0C.93.54,1.83,1,2.7,1.42c1.69.91,3.39,1.8,5.09,2.7A1,1,0,0,1,8,4.27a4.36,4.36,0,0,1-2.43-.34C3.75,2.89,1.87,2,0,1,.06.65-.07.31.09,0Z"/>
    <path class="cls-1"
          d="M24.34,12.91c-.84-.54-1.74-.95-2.61-1.42-1.69-.91-3.39-1.8-5.09-2.7a1,1,0,0,1-.22-.15A4.36,4.36,0,0,1,18.85,9c1.83,1,3.71,2,5.56,3C24.37,12.26,24.5,12.6,24.34,12.91Z"/>
  </g>
</svg>
