<svg id="Calque_1" data-name="Calque 1" xmlns="http://www.w3.org/2000/svg" width="24.43" height="12.91" viewBox="0 0 24.43 12.91"><defs><style>.cls-1{fill:#bf2333;}.cls-2,.cls-4{fill:#fff;}.cls-3{fill:#223164;}.cls-4{fill-rule:evenodd;}.cls-5{fill:#283575;}.cls-6{fill:#d0232e;}</style></defs><rect id="rect8767" class="cls-1" x="0.03" y="11.77" width="24.3" height="1.03"/><rect id="rect8769" class="cls-2" x="0.03" y="10.74" width="24.3" height="1.03"/><rect id="rect8771" class="cls-1" x="0.03" y="9.72" width="24.3" height="1.03"/><rect id="rect8773" class="cls-2" x="0.03" y="8.69" width="24.3" height="1.03"/><rect id="rect8775" class="cls-1" x="0.03" y="7.73" width="24.3" height="0.96"/><rect id="rect8777" class="cls-2" x="0.03" y="6.77" width="24.3" height="0.96"/><rect id="rect8779" class="cls-1" x="0.03" y="5.8" width="24.3" height="0.96"/><rect id="rect8781" class="cls-2" x="0.03" y="4.84" width="24.3" height="0.96"/><rect id="rect8783" class="cls-1" x="0.03" y="3.88" width="24.3" height="0.96"/><rect id="rect8785" class="cls-2" x="0.03" y="2.92" width="24.3" height="0.96"/><rect id="rect8787" class="cls-1" x="0.03" y="1.96" width="24.3" height="0.96"/><rect id="rect8791" class="cls-2" x="0.03" y="0.99" width="24.3" height="0.96"/><rect id="rect8793" class="cls-1" x="0.03" y="0.03" width="24.3" height="0.96"/><rect id="rect8796" class="cls-3" x="0.03" y="0.03" width="9.75" height="6.73"/><path id="path8825" class="cls-4" d="M13.23,24.52l.28,0,.11-.28.11.27.28,0-.21.19.07.29-.25-.15-.24.16.06-.29Z" transform="translate(-12.79 -18.55)"/><path id="path8827" class="cls-4" d="M14.83,24.52l.28,0,.11-.28.11.27.29,0-.21.19.06.29-.24-.15L15,25l.06-.29Z" transform="translate(-12.79 -18.55)"/><path id="path8829" class="cls-4" d="M16.5,24.52l.28,0,.11-.28.11.27.29,0-.22.19.07.29-.24-.15-.25.16.06-.29Z" transform="translate(-12.79 -18.55)"/><path id="path8831" class="cls-4" d="M18.1,24.52l.28,0,.11-.28.12.27.28,0-.21.19.06.29-.24-.15-.24.16.06-.29Z" transform="translate(-12.79 -18.55)"/><path id="path8833" class="cls-4" d="M19.7,24.52l.29,0,.1-.28.12.27.28,0-.21.19.07.29-.25-.15-.24.16.06-.29Z" transform="translate(-12.79 -18.55)"/><path id="path8835" class="cls-4" d="M21.37,24.52l.28,0,.11-.28.12.27.28,0L22,24.7,22,25l-.24-.15-.24.16.06-.29Z" transform="translate(-12.79 -18.55)"/><path id="path8837" class="cls-4" d="M14.06,23.88l.28,0,.11-.28.12.27.28,0-.21.2.06.29-.24-.15-.24.16.06-.29Z" transform="translate(-12.79 -18.55)"/><path id="path8839" class="cls-4" d="M13.23,23.17l.28,0,.11-.28.11.28.28,0-.21.2.07.29-.25-.15-.24.15.06-.29Z" transform="translate(-12.79 -18.55)"/><path id="path8841" class="cls-4" d="M14.06,22.53l.28,0,.11-.28.12.28.28,0-.21.2.06.29-.24-.15-.24.15.06-.29Z" transform="translate(-12.79 -18.55)"/><path id="path8843" class="cls-4" d="M13.23,21.82l.28,0,.11-.27.11.27.28,0-.21.2.07.29-.25-.15-.24.16.06-.29Z" transform="translate(-12.79 -18.55)"/><path id="path8845" class="cls-4" d="M14.06,21.18l.28,0,.11-.27.12.27.28,0-.21.2.06.29-.24-.15-.24.16.06-.3Z" transform="translate(-12.79 -18.55)"/><path id="path8847" class="cls-4" d="M13.23,20.48l.28,0,.11-.28.11.27.28,0-.21.19.07.29-.25-.15-.24.16.06-.29Z" transform="translate(-12.79 -18.55)"/><path id="path8849" class="cls-4" d="M14.06,19.84l.28,0,.11-.28.12.27.28,0-.21.2.06.29-.24-.15-.24.16.06-.29Z" transform="translate(-12.79 -18.55)"/><path id="path8851" class="cls-4" d="M13.23,19.13l.28,0,.11-.28.11.28.28,0-.21.2.07.29-.25-.15-.24.15.06-.29Z" transform="translate(-12.79 -18.55)"/><path id="path8853" class="cls-4" d="M15.66,23.88l.29,0,.1-.28.12.27.28,0-.21.2.07.29-.25-.15-.24.16.06-.29Z" transform="translate(-12.79 -18.55)"/><path id="path8855" class="cls-4" d="M14.83,23.17l.28,0,.11-.28.11.28.29,0-.21.2.06.29-.24-.15-.24.15.06-.29Z" transform="translate(-12.79 -18.55)"/><path id="path8857" class="cls-4" d="M15.66,22.53l.29,0,.1-.28.12.28.28,0-.21.2.07.29-.25-.15-.24.15.06-.29Z" transform="translate(-12.79 -18.55)"/><path id="path8859" class="cls-4" d="M14.83,21.82l.28,0,.11-.27.11.27.29,0-.21.2.06.29-.24-.15-.24.16.06-.29Z" transform="translate(-12.79 -18.55)"/><path id="path8861" class="cls-4" d="M15.66,21.18l.29,0,.1-.27.12.27.28,0-.21.2.07.29-.25-.15-.24.16.06-.3Z" transform="translate(-12.79 -18.55)"/><path id="path8863" class="cls-4" d="M14.83,20.48l.28,0,.11-.28.11.27.29,0-.21.19.06.29-.24-.15L15,21l.06-.29Z" transform="translate(-12.79 -18.55)"/><path id="path8865" class="cls-4" d="M15.66,19.84l.29,0,.1-.28.12.27.28,0-.21.2.07.29-.25-.15-.24.16.06-.29Z" transform="translate(-12.79 -18.55)"/><path id="path8867" class="cls-4" d="M14.83,19.13l.28,0,.11-.28.11.28.29,0-.21.2.06.29-.24-.15-.24.15.06-.29Z" transform="translate(-12.79 -18.55)"/><path id="path8869" class="cls-4" d="M17.27,23.88l.28,0,.11-.28.11.27.28,0-.21.2.07.29-.25-.15-.24.16.06-.29Z" transform="translate(-12.79 -18.55)"/><path id="path8871" class="cls-4" d="M16.5,23.17l.28,0,.11-.28.11.28.29,0-.22.2.07.29-.24-.15-.25.15.06-.29Z" transform="translate(-12.79 -18.55)"/><path id="path8873" class="cls-4" d="M19.7,23.17l.29,0,.1-.28.12.28.28,0-.21.2.07.29-.25-.15-.24.15.06-.29Z" transform="translate(-12.79 -18.55)"/><path id="path8875" class="cls-4" d="M18.1,23.17l.28,0,.11-.28.12.28.28,0-.21.2.06.29-.24-.15-.24.15.06-.29Z" transform="translate(-12.79 -18.55)"/><path id="path8877" class="cls-4" d="M20.54,23.88l.28,0,.11-.28.11.27.29,0-.22.2.07.29-.24-.15-.25.16.06-.29Z" transform="translate(-12.79 -18.55)"/><path id="path8879" class="cls-4" d="M18.93,23.88l.29,0,.1-.28.12.27.28,0-.21.2.07.29-.25-.15-.24.16.06-.29Z" transform="translate(-12.79 -18.55)"/><path id="path8881" class="cls-4" d="M16.5,19.13l.28,0,.11-.28.11.28.29,0-.22.2.07.29-.24-.15-.25.15.06-.29Z" transform="translate(-12.79 -18.55)"/><path id="path8883" class="cls-4" d="M17.27,19.84l.28,0,.11-.28.11.27.28,0-.21.2.07.29-.25-.15-.24.16.06-.29Z" transform="translate(-12.79 -18.55)"/><path id="path8885" class="cls-4" d="M16.5,20.48l.28,0,.11-.28.11.27.29,0-.22.19.07.29-.24-.15-.25.16.06-.29Z" transform="translate(-12.79 -18.55)"/><path id="path8887" class="cls-4" d="M17.27,21.18l.28,0,.11-.27.11.27.28,0-.21.2.07.29-.25-.15-.24.16.06-.3Z" transform="translate(-12.79 -18.55)"/><path id="path8889" class="cls-4" d="M16.5,21.82l.28,0,.11-.27.11.27.29,0-.22.2.07.29-.24-.15-.25.16.06-.29Z" transform="translate(-12.79 -18.55)"/><path id="path8891" class="cls-4" d="M17.27,22.53l.28,0,.11-.28.11.28.28,0-.21.2.07.29-.25-.15-.24.15.06-.29Z" transform="translate(-12.79 -18.55)"/><path id="path8893" class="cls-4" d="M21.37,23.17l.28,0,.11-.28.12.28.28,0-.21.2.06.29-.24-.15-.24.15.06-.29Z" transform="translate(-12.79 -18.55)"/><path id="path8895" class="cls-4" d="M18.1,21.82l.28,0,.11-.27.12.27.28,0-.21.2.06.29-.24-.15-.24.16.06-.29Z" transform="translate(-12.79 -18.55)"/><path id="path8897" class="cls-4" d="M18.1,19.13l.28,0,.11-.28.12.28.28,0-.21.2.06.29-.24-.15-.24.15.06-.29Z" transform="translate(-12.79 -18.55)"/><path id="path8899" class="cls-4" d="M18.1,20.48l.28,0,.11-.28.12.27.28,0-.21.19.06.29-.24-.15-.24.16.06-.29Z" transform="translate(-12.79 -18.55)"/><path id="path8901" class="cls-4" d="M20.54,22.53l.28,0,.11-.28.11.28.29,0-.22.2.07.29-.24-.15-.25.15.06-.29Z" transform="translate(-12.79 -18.55)"/><path id="path8903" class="cls-4" d="M18.93,22.53l.29,0,.1-.28.12.28.28,0-.21.2.07.29-.25-.15-.24.15.06-.29Z" transform="translate(-12.79 -18.55)"/><path id="path8905" class="cls-4" d="M18.93,19.84l.29,0,.1-.28.12.27.28,0-.21.2.07.29-.25-.15-.24.16.06-.29Z" transform="translate(-12.79 -18.55)"/><path id="path8907" class="cls-4" d="M18.93,21.18l.29,0,.1-.27.12.27.28,0-.21.2.07.29-.25-.15-.24.16.06-.3Z" transform="translate(-12.79 -18.55)"/><path id="path8909" class="cls-4" d="M21.37,21.82l.28,0,.11-.27.12.27.28,0L22,22l.06.29-.24-.15-.24.16.06-.29Z" transform="translate(-12.79 -18.55)"/><path id="path8911" class="cls-4" d="M19.7,21.82l.29,0,.1-.27.12.27.28,0-.21.2.07.29-.25-.15-.24.16.06-.29Z" transform="translate(-12.79 -18.55)"/><path id="path8913" class="cls-4" d="M19.7,19.13l.29,0,.1-.28.12.28.28,0-.21.2.07.29-.25-.15-.24.15.06-.29Z" transform="translate(-12.79 -18.55)"/><path id="path8915" class="cls-4" d="M19.7,20.48l.29,0,.1-.28.12.27.28,0-.21.19.07.29-.25-.15-.24.16.06-.29Z" transform="translate(-12.79 -18.55)"/><path id="path8917" class="cls-4" d="M21.37,19.13l.28,0,.11-.28.12.28.28,0-.21.2.06.29-.24-.15-.24.15.06-.29Z" transform="translate(-12.79 -18.55)"/><path id="path8919" class="cls-4" d="M20.54,19.84l.28,0,.11-.28.11.27.29,0-.22.2.07.29-.24-.15-.25.16.06-.29Z" transform="translate(-12.79 -18.55)"/><path id="path8921" class="cls-4" d="M21.37,20.48l.28,0,.11-.28.12.27.28,0-.21.19L22,21l-.24-.15-.24.16.06-.29Z" transform="translate(-12.79 -18.55)"/><path id="path8923" class="cls-4" d="M20.54,21.18l.28,0,.11-.27.11.27.29,0-.22.2.07.29-.24-.15-.25.16.06-.3Z" transform="translate(-12.79 -18.55)"/><path id="path3835" class="cls-2" d="M12.79,31.37,37.22,18.63l0,12.77Z" transform="translate(-12.79 -18.55)"/><path id="path3839" class="cls-5" d="M27,31.35l0-4.66H37.12v4.64Z" transform="translate(-12.79 -18.55)"/><path id="path3843" class="cls-5" d="M37.12,18.6,28.85,23h8.26Z" transform="translate(-12.79 -18.55)"/><path id="path3845" class="cls-5" d="M12.82,31.34l9.08-4.71h1.26l0,4.73Z" transform="translate(-12.79 -18.55)"/><path id="path3847" class="cls-2" d="M37.18,30.07l0,1.38H35l-8.34-4.37.09-.61,3.7.1Z" transform="translate(-12.79 -18.55)"/><path id="path3855" class="cls-2" d="M37.2,18.55,28.64,23.1l2.65.06L37.15,20Z" transform="translate(-12.79 -18.55)"/><path id="path3859" class="cls-2" d="M12.82,31.34l9.5-4.93,1,0v.93l-7.48,4Z" transform="translate(-12.79 -18.55)"/><path id="path4355" class="cls-6" d="M12.82,31.34l9.35-4.86h1l0,.5-8.3,4.35Z" transform="translate(-12.79 -18.55)"/><path id="path4357" class="cls-6" d="M28.09,26.56l1.84.05,7.21,3.86,0,.84Z" transform="translate(-12.79 -18.55)"/><path id="path3058" class="cls-6" d="M37.12,26h-14l4.66-2.38,9.38,0Z" transform="translate(-12.79 -18.55)"/><path id="path3060" class="cls-6" d="M26.23,31.31l0-6.9-2.42,1.23v5.7Z" transform="translate(-12.79 -18.55)"/></svg>