<?xml version="1.0" encoding="utf-8"?>
<!-- Generator: Adobe Illustrator 23.0.2, SVG Export Plug-In . SVG Version: 6.00 Build 0)  -->
<svg version="1.1" xmlns="http://www.w3.org/2000/svg" xmlns:xlink="http://www.w3.org/1999/xlink" x="0px" y="0px"
	 viewBox="0 0 30 17" style="enable-background:new 0 0 30 17;" xml:space="preserve">
<style type="text/css">
	.st0{fill:#002496;}
	.st1{fill:#FFFFFF;}
	.st2{fill:#ED2839;}
	.st3{display:none;}
	.st4{display:inline;fill:#FFFFFF;}
	.st5{display:inline;fill:#ED2839;}
	.st6{display:inline;fill:#002496;}
</style>
<g id="Calque_2">
	<rect x="0" y="-0.089" class="st0" width="10" height="17.178"/>
	<rect x="10" y="-0.089" class="st1" width="10" height="17.178"/>
	<rect x="20" y="-0.089" class="st2" width="10" height="17.178"/>
</g>
<g id="Calque_3" class="st3">
	<path class="st4" d="M0.035,2.023c0-0.673,0-1.346,0-2.019c10.011,0,20.022,0,30.033,0c0,5.678,0,11.357,0,17.035
		c-1.181,0-2.361,0-3.542,0c-0.482-0.27-0.964-0.54-1.445-0.811c-0.62-0.35-1.239-0.701-1.859-1.051
		c-0.865-0.49-1.73-0.979-2.594-1.471c-0.568-0.323-1.131-0.653-1.699-0.976c-0.289-0.165-0.583-0.321-0.899-0.495
		c0,0.094,0,0.157,0,0.22c-0.002,1.528-0.003,3.057-0.005,4.585c-0.401,0-0.803,0-1.204,0c-0.002-0.029-0.006-0.059-0.006-0.088
		c0-2.19,0-4.38,0-6.57c0-0.045,0.008-0.09,0.014-0.156c4.403,0,8.796,0,13.187,0c0-1.135,0-2.249,0-3.384
		c-4.402,0-8.795,0-13.204,0c0-2.274,0-4.526,0-6.787c-1.192,0-2.369,0-3.568,0c0,2.266,0,4.522,0,6.79c-0.086,0-0.15,0-0.214,0
		c-4.273,0-8.547,0-12.82,0c-0.059,0-0.118-0.004-0.177-0.006c0-0.378,0-0.756,0-1.133c0.071-0.002,0.141-0.005,0.212-0.005
		c2.006,0,4.012,0,6.019,0c0.059,0,0.118,0,0.177,0C6.39,5.632,6.337,5.596,6.281,5.565C5.758,5.272,5.233,4.982,4.711,4.685
		C3.929,4.241,3.149,3.791,2.368,3.344C2.133,3.21,1.897,3.078,1.662,2.945C1.12,2.637,0.578,2.33,0.035,2.023z M26.482,0.059
		c-2.837,0-5.64,0-8.443,0c0,1.594,0,3.174,0,4.773c0.106-0.052,0.201-0.094,0.292-0.145c0.62-0.349,1.24-0.698,1.859-1.049
		c0.87-0.493,1.74-0.986,2.608-1.481c0.568-0.324,1.132-0.653,1.699-0.977c0.24-0.137,0.484-0.265,0.724-0.401
		C25.634,0.545,26.045,0.308,26.482,0.059z M3.592,0.049c0.084,0.054,0.131,0.088,0.181,0.116c0.384,0.217,0.769,0.432,1.153,0.649
		c0.629,0.356,1.259,0.712,1.888,1.068c0.859,0.487,1.719,0.973,2.578,1.462c0.567,0.323,1.131,0.652,1.698,0.975
		c0.305,0.174,0.614,0.34,0.933,0.517c0-1.609,0-3.196,0-4.787C9.219,0.049,6.43,0.049,3.592,0.049z M30.022,2.038
		c-2.146,1.216-4.274,2.421-6.441,3.649c2.18,0,4.31,0,6.441,0C30.022,4.471,30.022,3.269,30.022,2.038z M30.021,11.393
		c-2.138,0-4.265,0-6.438,0c2.168,1.228,4.294,2.433,6.438,3.647C30.021,13.811,30.021,12.61,30.021,11.393z"/>
	<path class="st5" d="M0.035,6.84c0.059,0.002,0.118,0.006,0.177,0.006c4.273,0,8.547,0,12.82,0c0.064,0,0.128,0,0.214,0
		c0-2.268,0-4.524,0-6.79c1.199,0,2.375,0,3.568,0c0,2.261,0,4.513,0,6.787c4.408,0,8.802,0,13.204,0c0,1.135,0,2.249,0,3.384
		c-4.391,0-8.784,0-13.187,0c-0.006,0.066-0.014,0.111-0.014,0.156c-0.001,2.19,0,4.38,0,6.57c0,0.029,0.004,0.059,0.006,0.088
		c-1.192,0-2.385,0-3.577,0c0.002-0.029,0.006-0.059,0.006-0.088c0-2.194,0-4.388,0-6.583c0-0.04-0.005-0.079-0.009-0.135
		c-0.08,0-0.149,0-0.219,0c-4.265,0-8.529,0-12.794,0c-0.065,0-0.13,0.004-0.194,0.006C0.035,9.106,0.035,7.973,0.035,6.84z"/>
	<path class="st4" d="M0.035,10.24c0.065-0.002,0.13-0.006,0.194-0.006c4.265,0,8.529,0,12.794,0c0.069,0,0.139,0,0.219,0
		c0.004,0.056,0.009,0.096,0.009,0.135c0,2.194,0,4.388,0,6.583c0,0.029-0.004,0.059-0.006,0.088c-0.401,0-0.803,0-1.204,0
		c0-1.591,0-3.183,0-4.797c-0.051,0.025-0.077,0.035-0.101,0.049c-0.499,0.277-0.998,0.552-1.495,0.832
		c-0.63,0.355-1.26,0.712-1.888,1.07c-0.782,0.446-1.563,0.895-2.344,1.342c-0.235,0.134-0.47,0.268-0.705,0.402
		c-0.644,0.367-1.287,0.735-1.931,1.102c-1.177,0-2.354,0-3.542,0c0-0.661,0-1.322,0-1.983c0.558-0.316,1.116-0.63,1.673-0.947
		c0.951-0.541,1.901-1.083,2.851-1.625c0.486-0.277,0.971-0.555,1.457-0.831c0.144-0.082,0.291-0.158,0.437-0.236
		c-0.005-0.013-0.01-0.026-0.014-0.039c-0.057,0-0.115,0-0.172,0c-0.909,0-1.817,0.001-2.726,0
		c-1.168-0.001-2.337-0.003-3.505-0.005C0.035,10.995,0.035,10.617,0.035,10.24z"/>
	<path class="st6" d="M18.027,17.04c0.002-1.528,0.003-3.057,0.005-4.585c0-0.063,0-0.126,0-0.22
		c0.316,0.174,0.61,0.331,0.899,0.495c0.568,0.323,1.131,0.653,1.699,0.976c0.864,0.492,1.729,0.981,2.594,1.471
		c0.619,0.351,1.239,0.702,1.859,1.051c0.481,0.271,0.963,0.541,1.445,0.811C23.694,17.04,20.86,17.04,18.027,17.04z"/>
	<path class="st6" d="M3.577,17.04c0.644-0.367,1.287-0.735,1.931-1.102c0.235-0.134,0.47-0.268,0.705-0.402
		c0.781-0.447,1.562-0.896,2.344-1.342c0.628-0.358,1.258-0.715,1.888-1.07c0.497-0.28,0.997-0.555,1.495-0.832
		c0.024-0.014,0.05-0.024,0.101-0.049c0,1.614,0,3.206,0,4.797C9.22,17.04,6.399,17.04,3.577,17.04z"/>
	<path class="st6" d="M0.035,2.023C0.578,2.33,1.12,2.637,1.662,2.945C1.897,3.078,2.133,3.21,2.368,3.344
		c0.781,0.447,1.561,0.897,2.343,1.341c0.521,0.296,1.046,0.586,1.569,0.879c0.056,0.031,0.11,0.067,0.163,0.136
		c-0.059,0-0.118,0-0.177,0c-2.006,0-4.012,0-6.019,0c-0.071,0-0.141,0.003-0.212,0.005C0.035,4.478,0.035,3.251,0.035,2.023z"/>
	<path class="st6" d="M0.035,11.373c1.168,0.002,2.337,0.004,3.505,0.005c0.909,0.001,1.817,0,2.726,0c0.057,0,0.115,0,0.172,0
		c0.005,0.013,0.01,0.026,0.014,0.039c-0.146,0.079-0.293,0.155-0.437,0.236c-0.486,0.276-0.971,0.554-1.457,0.831
		c-0.95,0.542-1.9,1.084-2.851,1.625c-0.557,0.317-1.115,0.632-1.673,0.947C0.035,13.828,0.035,12.601,0.035,11.373z"/>
	<path class="st6" d="M26.482,0.059c-0.436,0.249-0.847,0.486-1.26,0.72c-0.24,0.136-0.485,0.264-0.724,0.401
		c-0.567,0.324-1.132,0.653-1.699,0.977c-0.869,0.495-1.738,0.988-2.608,1.481c-0.619,0.351-1.238,0.701-1.859,1.049
		c-0.09,0.051-0.186,0.093-0.292,0.145c0-1.599,0-3.179,0-4.773C20.842,0.059,23.645,0.059,26.482,0.059z"/>
	<path class="st6" d="M3.592,0.049c2.837,0,5.627,0,8.43,0c0,1.591,0,3.178,0,4.787c-0.32-0.177-0.629-0.343-0.933-0.517
		c-0.567-0.323-1.131-0.652-1.698-0.975C8.533,2.855,7.673,2.369,6.813,1.882C6.184,1.525,5.555,1.169,4.926,0.814
		C4.542,0.597,4.157,0.381,3.773,0.164C3.723,0.136,3.677,0.103,3.592,0.049z"/>
	<path class="st6" d="M30.022,2.038c0,1.23,0,2.432,0,3.649c-2.131,0-4.261,0-6.441,0C25.747,4.46,27.876,3.254,30.022,2.038z"/>
	<path class="st6" d="M30.021,11.393c0,1.216,0,2.418,0,3.647c-2.144-1.214-4.27-2.419-6.438-3.647
		C25.756,11.393,27.883,11.393,30.021,11.393z"/>
</g>
</svg>
