<?xml version="1.0" encoding="utf-8"?>
<!-- Generator: Adobe Illustrator 23.0.2, SVG Export Plug-In . SVG Version: 6.00 Build 0)  -->
<svg version="1.1" id="Calque_3" xmlns="http://www.w3.org/2000/svg" xmlns:xlink="http://www.w3.org/1999/xlink" x="0px" y="0px"
	 viewBox="0 0 30 17" style="enable-background:new 0 0 30 17;" xml:space="preserve">
<style type="text/css">
	.st0{fill:#FFFFFF;}
	.st1{fill:#ED2839;}
	.st2{fill:#002496;}
</style>
<rect x="0" y="0" class="st0" width="30" height="17"/>
<path class="st1" d="M0.035,6.806c0.059,0.002,0.118,0.006,0.177,0.006c4.273,0,8.547,0,12.82,0c0.064,0,0.128,0,0.214,0
	c0-2.275,0-4.539,0-6.812c1.199,0,2.375,0,3.568,0c0,2.268,0,4.527,0,6.809c4.408,0,8.802,0,13.204,0c0,1.139,0,2.256,0,3.395
	c-4.391,0-8.784,0-13.187,0c-0.006,0.066-0.014,0.111-0.014,0.156c-0.001,2.197,0,4.394,0,6.591c0,0.029,0.004,0.059,0.006,0.088
	c-1.192,0-2.385,0-3.577,0c0.002-0.029,0.006-0.059,0.006-0.088c0-2.201,0-4.403,0-6.604c0-0.04-0.005-0.079-0.009-0.136
	c-0.08,0-0.149,0-0.219,0c-4.265,0-8.529,0-12.794,0c-0.065,0-0.13,0.004-0.194,0.006C0.035,9.08,0.035,7.943,0.035,6.806z"/>
<path class="st2" d="M18.027,17.04c0.002-1.528,0.003-3.057,0.005-4.585c0-0.063,0-0.126,0-0.22c0.316,0.174,0.61,0.331,0.899,0.495
	c0.568,0.323,1.131,0.653,1.699,0.976c0.864,0.492,1.729,0.981,2.594,1.471c0.619,0.351,1.239,0.702,1.859,1.051
	c0.481,0.271,0.963,0.541,1.445,0.811C23.694,17.04,20.86,17.04,18.027,17.04z"/>
<path class="st2" d="M3.577,17.04c0.644-0.367,1.287-0.735,1.931-1.102c0.235-0.134,0.47-0.268,0.705-0.402
	c0.781-0.447,1.562-0.896,2.344-1.342c0.628-0.358,1.258-0.715,1.888-1.07c0.497-0.28,0.997-0.555,1.495-0.832
	c0.024-0.014,0.05-0.024,0.101-0.049c0,1.614,0,3.206,0,4.797C9.22,17.04,6.399,17.04,3.577,17.04z"/>
<path class="st2" d="M0.035,2.023C0.578,2.33,1.12,2.637,1.662,2.945C1.897,3.078,2.133,3.21,2.368,3.344
	c0.781,0.447,1.561,0.897,2.343,1.341c0.521,0.296,1.046,0.586,1.569,0.879c0.056,0.031,0.11,0.067,0.163,0.136
	c-0.059,0-0.118,0-0.177,0c-2.006,0-4.012,0-6.019,0c-0.071,0-0.141,0.003-0.212,0.005C0.035,4.478,0.035,3.251,0.035,2.023z"/>
<path class="st2" d="M0.035,11.373c1.168,0.002,2.337,0.004,3.505,0.005c0.909,0.001,1.817,0,2.726,0c0.057,0,0.115,0,0.172,0
	c0.005,0.013,0.01,0.026,0.014,0.039c-0.146,0.079-0.293,0.155-0.437,0.236c-0.486,0.276-0.971,0.554-1.457,0.831
	c-0.95,0.542-1.9,1.084-2.851,1.625c-0.557,0.317-1.115,0.632-1.673,0.947C0.035,13.828,0.035,12.601,0.035,11.373z"/>
<path class="st2" d="M26.482,0c-0.436,0.249-0.847,0.486-1.26,0.72c-0.24,0.136-0.485,0.264-0.724,0.401
	c-0.567,0.324-1.132,0.653-1.699,0.977c-0.869,0.495-1.738,0.988-2.608,1.481c-0.619,0.351-1.238,0.701-1.859,1.049
	c-0.09,0.051-0.186,0.093-0.292,0.145c0-1.599,0-3.179,0-4.773C20.842,0,23.645,0,26.482,0z"/>
<path class="st2" d="M3.592,0c2.837,0,5.627,0,8.43,0c0,1.591,0,3.178,0,4.787c-0.32-0.177-0.629-0.343-0.933-0.517
	c-0.567-0.323-1.131-0.652-1.698-0.975C8.533,2.807,7.673,2.32,6.813,1.833C6.184,1.477,5.555,1.121,4.926,0.765
	C4.542,0.548,4.157,0.333,3.773,0.116C3.723,0.088,3.677,0.054,3.592,0z"/>
<path class="st2" d="M30.022,2.038c0,1.23,0,2.432,0,3.649c-2.131,0-4.261,0-6.441,0C25.747,4.46,27.876,3.254,30.022,2.038z"/>
<path class="st2" d="M30.021,11.393c0,1.216,0,2.418,0,3.647c-2.144-1.214-4.27-2.419-6.438-3.647
	C25.756,11.393,27.883,11.393,30.021,11.393z"/>
</svg>
